<svg xmlns="http://www.w3.org/2000/svg" fill="none" viewBox="0 0 32 32" id="X-Twitter-Logo--Streamline-Logos-Block" height="32" width="32"><desc>X Twitter Logo Streamline Icon: https://streamlinehq.com</desc><path fill="#000000" fill-rule="evenodd" d="M6.666666666666666 1.3333333333333333C3.7211466666666664 1.3333333333333333 1.3333333333333333 3.7211466666666664 1.3333333333333333 6.666666666666666v18.666666666666664c0 2.9454666666666665 2.387813333333333 5.333333333333333 5.333333333333333 5.333333333333333h18.666666666666664c2.9454666666666665 0 5.333333333333333 -2.3878666666666666 5.333333333333333 -5.333333333333333V6.666666666666666c0 -2.94552 -2.3878666666666666 -5.333333333333333 -5.333333333333333 -5.333333333333333H6.666666666666666Zm-0.44571999999999995 4.666666666666666c-0.23381333333333332 0.08702666666666665 -0.43109333333333333 0.26012 -0.54624 0.49106666666666665 -0.16918666666666665 0.3393333333333333 -0.1318933333333333 0.7451866666666667 0.09630666666666667 1.0480133333333332l7.485573333333333 9.93372 -7.88788 8.458666666666666c-0.020679999999999997 0.022266666666666664 -0.040146666666666664 0.04506666666666666 -0.05842666666666666 0.06853333333333333h2.729213333333333l6.439306666666667 -6.905333333333333 4.951066666666666 6.5704c0.11613333333333332 0.154 0.2724 0.2690666666666667 0.4485333333333333 0.3349333333333333h5.8964c0.23306666666666667 -0.0872 0.4298666666666667 -0.26 0.5446666666666666 -0.4905333333333333 0.16920000000000002 -0.3393333333333333 0.132 -0.7451999999999999 -0.09626666666666667 -1.048l-7.4856 -9.933733333333333L26.68973333333333 6h-2.7346666666666666l-6.439733333333333 6.905759999999999 -4.951066666666666 -6.57032c-0.11638666666666667 -0.15444 -0.27327999999999997 -0.26969333333333334 -0.45 -0.33544H6.220946666666666ZM20.7272 24.063333333333333 8.575333333333333 7.937253333333333h2.6917066666666667L23.41893333333333 24.063333333333333h-2.6917333333333335Z" clip-rule="evenodd" stroke-width="1.3333"></path></svg>